<svg xmlns="http://www.w3.org/2000/svg" width="100%" height="100%">
    <style>
        .cloud {
            fill: none;
            stroke: rgba(0, 0, 0, 0.2);
            stroke-width: 1px;
        }
    </style>
    <defs>
        <pattern id="clouds" x="0" y="0" width="500" height="422" patternUnits="userSpaceOnUse" viewBox="0 0 900 760">

            <path class="cloud"
                d="M578.68,305.75l-255.9,1.58c-5,0-31.4-.55-52.11-21.78-4.19-4.29-19.17-20.72-20.23-45.89-1.12-26.74,13.94-52.47,37.34-65.33,28.46-15.65,57-5.55,61.45-3.89,4.44-10.13,16-32.69,41.22-48.23,2.66-1.64,54.55-32.48,102.67-3.89,34.21,20.33,42.79,56.58,44.34,63.78,3.21-2.47,28.68-21.46,60.67-13.22,28.82,7.43,49.42,33.46,51.34,60.67C652,265.41,621.92,301.27,578.68,305.75Z" />
            <path class="cloud"
                d="M900,666.46l-127.22.78c-5,0-31.4-.55-52.11-21.78-4.19-4.29-19.17-20.72-20.23-45.89-1.12-26.74,13.94-52.47,37.34-65.34,28.46-15.64,57-5.54,61.45-3.88,4.44-10.13,16-32.69,41.22-48.23,1.86-1.15,27.72-16.53,59.55-16" />
            <path class="cloud"
                d="M0,466.15a86.26,86.26,0,0,1,43.12,12.08C77.33,498.56,85.91,534.81,87.46,542c3.21-2.47,28.68-21.46,60.67-13.22,28.82,7.42,49.42,33.46,51.34,60.67,2.52,35.86-27.55,71.72-70.79,76.2L0,666.46" />

        </pattern>
    </defs>
    <rect x="0" y="0" width="100%" height="100%" fill="url(#clouds)" />
</svg>